<svg xmlns="http://www.w3.org/2000/svg" viewBox="0 0 1280 640" role="img" aria-label="carrel — a library desk for your files, and your agents">
  <!-- carrel social preview (1280x640) — hand-authored, palette per docs/BRAND.md -->
  <defs>
    <radialGradient id="glow" cx="0.5" cy="0.5" r="0.5">
      <stop offset="0" stop-color="#F2A93C" stop-opacity="0.28"/>
      <stop offset="0.55" stop-color="#F2A93C" stop-opacity="0.10"/>
      <stop offset="1" stop-color="#F2A93C" stop-opacity="0"/>
    </radialGradient>
    <linearGradient id="bg" x1="0" y1="0" x2="0" y2="1">
      <stop offset="0" stop-color="#1B150D"/>
      <stop offset="1" stop-color="#14100A"/>
    </linearGradient>
  </defs>
  <rect width="1280" height="640" fill="url(#bg)"/>

  <!-- mark, centered up top -->
  <g transform="translate(479,16) scale(0.62)">
    <circle cx="316" cy="132" r="150" fill="url(#glow)"/>
    <path d="M 316 150 L 252 352 L 396 352 Z" fill="#F2A93C" opacity="0.16"/>
    <path d="M 316 132 L 182 132 Q 122 132 122 192 L 122 320 Q 122 380 182 380 L 396 380"
          fill="none" stroke="#F2A93C" stroke-width="56"
          stroke-linecap="round" stroke-linejoin="round"/>
    <rect x="276" y="316" width="104" height="36" rx="8" fill="#F2EADA"/>
    <path d="M 292 328 L 364 328 M 292 340 L 348 340" stroke="#B07C24" stroke-width="5"
          stroke-linecap="round" opacity="0.6"/>
    <circle cx="316" cy="132" r="40" fill="#F2A93C"/>
    <circle cx="316" cy="132" r="15" fill="#F2EADA" opacity="0.9"/>
  </g>

  <!-- wordmark: hand-drawn monoline "carrel", centered -->
  <g transform="translate(398,296) scale(1.2)" fill="none" stroke="#F2EADA"
     stroke-width="18" stroke-linecap="round">
    <path d="M 64.5 47.4 A 32 32 0 1 0 64.5 88.6"/>
    <circle cx="126" cy="68" r="32"/>
    <path d="M 158 36 L 158 100"/>
    <path d="M 184 36 L 184 100"/>
    <path d="M 184 68 A 32 32 0 0 1 216 36"/>
    <path d="M 246 36 L 246 100"/>
    <path d="M 246 68 A 32 32 0 0 1 278 36"/>
    <path d="M 304 68 L 368 68"/>
    <path d="M 368 68 A 32 32 0 1 0 356.6 92.5"/>
    <path d="M 394 14 L 394 100"/>
  </g>

  <text x="640" y="486" text-anchor="middle" font-size="34" fill="#F2EADA"
        font-family="ui-sans-serif, -apple-system, 'Segoe UI', Roboto, 'Helvetica Neue', Arial, sans-serif">A library desk for your files — and your agents.</text>
  <text x="640" y="530" text-anchor="middle" font-size="21" fill="#A19278"
        font-family="ui-monospace, 'Cascadia Code', Menlo, Consolas, 'Liberation Mono', monospace">pdf · md · images · html · json · xml · csv — 24 commands, --json everywhere</text>

  <!-- bookshelf along the bottom edge -->
  <g opacity="0.85">
    <rect x="6" y="584" width="20" height="56" rx="4" fill="#2C2416"/>
    <rect x="31" y="570" width="20" height="70" rx="4" fill="#211A11"/>
    <rect x="57" y="584" width="22" height="56" rx="4" fill="#443826"/>
    <rect x="83" y="562" width="16" height="78" rx="4" fill="#2C2416"/>
    <rect x="103" y="592" width="20" height="48" rx="4" fill="#443826"/>
    <rect x="129" y="584" width="16" height="56" rx="4" fill="#211A11"/>
    <rect x="149" y="554" width="14" height="86" rx="4" fill="#B07C24"/>
    <rect x="171" y="554" width="18" height="86" rx="4" fill="#6E9EBF"/>
    <rect x="193" y="584" width="26" height="56" rx="4" fill="#A19278"/>
    <rect x="224" y="562" width="22" height="78" rx="4" fill="#F2A93C" transform="rotate(7 246 640)"/>
    <rect x="250" y="562" width="16" height="78" rx="4" fill="#2C2416"/>
    <rect x="271" y="584" width="14" height="56" rx="4" fill="#443826"/>
    <rect x="289" y="570" width="22" height="70" rx="4" fill="#2C2416"/>
    <rect x="315" y="578" width="18" height="62" rx="4" fill="#211A11"/>
    <rect x="337" y="600" width="20" height="40" rx="4" fill="#443826"/>
    <rect x="365" y="592" width="20" height="48" rx="4" fill="#2C2416" transform="rotate(7 385 640)"/>
    <rect x="390" y="578" width="14" height="62" rx="4" fill="#443826"/>
    <rect x="412" y="570" width="20" height="70" rx="4" fill="#211A11"/>
    <rect x="436" y="562" width="14" height="78" rx="4" fill="#B07C24"/>
    <rect x="455" y="554" width="16" height="86" rx="4" fill="#6E9EBF" transform="rotate(7 471 640)"/>
    <rect x="475" y="554" width="26" height="86" rx="4" fill="#A19278"/>
    <rect x="505" y="562" width="26" height="78" rx="4" fill="#F2A93C"/>
    <rect x="539" y="562" width="26" height="78" rx="4" fill="#2C2416"/>
    <rect x="573" y="554" width="22" height="86" rx="4" fill="#443826" transform="rotate(7 595 640)"/>
    <rect x="600" y="578" width="16" height="62" rx="4" fill="#2C2416"/>
    <rect x="624" y="562" width="26" height="78" rx="4" fill="#211A11"/>
    <rect x="658" y="562" width="14" height="78" rx="4" fill="#443826"/>
    <rect x="677" y="592" width="26" height="48" rx="4" fill="#2C2416"/>
    <rect x="709" y="578" width="22" height="62" rx="4" fill="#443826"/>
    <rect x="737" y="562" width="20" height="78" rx="4" fill="#211A11" transform="rotate(7 757 640)"/>
    <rect x="762" y="600" width="16" height="40" rx="4" fill="#B07C24"/>
    <rect x="786" y="592" width="26" height="48" rx="4" fill="#6E9EBF" transform="rotate(7 812 640)"/>
    <rect x="817" y="570" width="22" height="70" rx="4" fill="#A19278"/>
    <rect x="847" y="600" width="18" height="40" rx="4" fill="#F2A93C"/>
    <rect x="869" y="570" width="20" height="70" rx="4" fill="#2C2416"/>
    <rect x="894" y="554" width="22" height="86" rx="4" fill="#443826"/>
    <rect x="922" y="554" width="18" height="86" rx="4" fill="#2C2416"/>
    <rect x="945" y="562" width="22" height="78" rx="4" fill="#211A11"/>
    <rect x="972" y="570" width="22" height="70" rx="4" fill="#443826"/>
    <rect x="999" y="562" width="20" height="78" rx="4" fill="#2C2416"/>
    <rect x="1023" y="570" width="14" height="70" rx="4" fill="#443826"/>
    <rect x="1043" y="562" width="16" height="78" rx="4" fill="#211A11"/>
    <rect x="1065" y="592" width="18" height="48" rx="4" fill="#B07C24"/>
    <rect x="1091" y="592" width="22" height="48" rx="4" fill="#6E9EBF"/>
    <rect x="1119" y="570" width="22" height="70" rx="4" fill="#A19278"/>
    <rect x="1149" y="562" width="20" height="78" rx="4" fill="#F2A93C"/>
    <rect x="1173" y="578" width="22" height="62" rx="4" fill="#2C2416"/>
    <rect x="1200" y="592" width="20" height="48" rx="4" fill="#443826"/>
    <rect x="1226" y="592" width="14" height="48" rx="4" fill="#2C2416"/>
    <rect x="1248" y="570" width="14" height="70" rx="4" fill="#211A11"/>
    <rect x="1266" y="592" width="26" height="48" rx="4" fill="#443826"/>
  </g>
</svg>
